<svg id="f5b5d49e-2811-4eaf-8566-c7b26cb23d63" data-name="Layer 1" xmlns="http://www.w3.org/2000/svg" xmlns:xlink="http://www.w3.org/1999/xlink" viewBox="0 0 1280 1024"><defs><linearGradient id="a16f7dbf-8ab3-4ad5-bd18-46efefd7d530" x1="346.88" y1="628.15" x2="880.2" y2="94.83" gradientUnits="userSpaceOnUse"><stop offset="0" stop-color="#05e0f0"/><stop offset="0.13" stop-color="#13b0f8"/><stop offset="0.23" stop-color="#1f8aff"/><stop offset="0.31" stop-color="#2189ff"/><stop offset="0.34" stop-color="#2886ff"/><stop offset="0.36" stop-color="#3382ff"/><stop offset="0.37" stop-color="#447bff"/><stop offset="0.39" stop-color="#5a72ff"/><stop offset="0.4" stop-color="#7567ff"/><stop offset="0.41" stop-color="#8f5cff"/><stop offset="0.42" stop-color="#9557f1"/><stop offset="0.45" stop-color="#a547c8"/><stop offset="0.48" stop-color="#b23ba6"/><stop offset="0.52" stop-color="#bd318c"/><stop offset="0.55" stop-color="#c42a79"/><stop offset="0.58" stop-color="#c9256e"/><stop offset="0.62" stop-color="#ca246a"/><stop offset="1" stop-color="#cb2369"/></linearGradient><linearGradient id="f0a5f3f8-dd6a-4939-afb4-4f4e88daa549" x1="351.74" y1="623.3" x2="875.34" y2="99.7" xlink:href="#a16f7dbf-8ab3-4ad5-bd18-46efefd7d530"/><linearGradient id="a81e724a-a021-403c-8a0c-6a4a5fa2671b" x1="547.09" y1="643.57" x2="996.56" y2="643.57" gradientUnits="userSpaceOnUse"><stop offset="0" stop-color="#05e0f0"/><stop offset="0.24" stop-color="#1fc0ff"/><stop offset="0.28" stop-color="#4b88ff"/><stop offset="0.34" stop-color="#873eff"/><stop offset="0.37" stop-color="#9e20ff"/><stop offset="0.42" stop-color="#ba1ed8"/><stop offset="0.51" stop-color="#f11989"/><stop offset="0.6" stop-color="#f53c75"/><stop offset="0.72" stop-color="#f9605f"/><stop offset="0.83" stop-color="#fc7a50"/><stop offset="0.92" stop-color="#fe8a46"/><stop offset="1" stop-color="#ff9043"/></linearGradient><linearGradient id="a71b3a7e-a15b-46cd-9c2c-32fe079fad24" x1="553.96" y1="643.57" x2="989.7" y2="643.57" xlink:href="#a81e724a-a021-403c-8a0c-6a4a5fa2671b"/><linearGradient id="bfe550e3-3123-4964-97fe-be2fb7ff83d2" x1="352.27" y1="624.31" x2="875.87" y2="100.71" xlink:href="#a16f7dbf-8ab3-4ad5-bd18-46efefd7d530"/><linearGradient id="ad5db589-4ea0-4786-ad91-1d15fbec5ec5" x1="554.49" y1="644.59" x2="990.23" y2="644.59" xlink:href="#a81e724a-a021-403c-8a0c-6a4a5fa2671b"/></defs><path d="M387.39,661c-5.42,0-12.31-3.57-15.37-8a7.31,7.31,0,0,1-.43-.7s-.25-.51-.63-1.38c-8.76-19.49-16-34.57-20.5-42.47-2.6-4.61-7.67-14.17-14.09-26.28-13.57-25.59-32.16-60.63-45.45-83-6.64-11.21-14-22.47-21.05-33.35l-4.72-7.28c-8.43-13-16.07-24.24-23.34-34.31-2.82-2.42-6-6.66-6.93-10.24-1.27-5,.27-12.62,5.62-17a22.81,22.81,0,0,1,13.2-4.41,14.41,14.41,0,0,1,4.32.62c1.58.5,1.58.5,20.91,16.52,8.62,7.13,18.39,15.23,25.07,20.66s13.67,11.33,20.34,17c7.46,6.3,15.19,12.82,22.74,18.9,3.7,2.88,7.54,6,11.25,9,3.38,2.73,6.87,5.55,10.23,8.18,3.06,2.4,6.18,5,9.19,7.51,3.66,3.06,7.44,6.2,11.16,9-3.22-6.81-6.82-13.55-9.8-19.13-2.26-4.24-4.21-7.89-5.61-10.82-11.46-24-23.22-46.77-35-67.67-.32-.55-.88-1.55-1.65-2.9-10.24-18-24.32-43.13-28.37-52.59-2.82-6.61.82-15.24,6-19.16a6.76,6.76,0,0,1,.87-.56,19.56,19.56,0,0,1,3.75-1.55,16.19,16.19,0,0,1,4.72-.69,15.63,15.63,0,0,1,14.6,9.51s.12.26.15.34c5.55,13.28,13.4,31.44,20.07,46.45a14.61,14.61,0,0,1,5.95-7,13.67,13.67,0,0,1,7.06-2c5.76,0,10.94,3.55,13.52,9.26,3.67,8.1,1.2,17.35-5.73,21.51a13.22,13.22,0,0,1-6.77,1.89,13.67,13.67,0,0,1-3.61-.49c2.67,5.89,5.36,11.82,8.09,17.74a14.58,14.58,0,0,1,4.29-9.35,12.88,12.88,0,0,1,8.94-3.66,13.61,13.61,0,0,1,11,6,13.06,13.06,0,0,1,2.36,5c2.15,6.3,4.84,13.21,8,20.54,3,7,12.42,26.16,15.23,31.88l3.31,6.78c0-1.61.08-3.22.09-4.82,0-2.16.2-4.39.38-6.54a44.4,44.4,0,0,0,.2-8.74,7.2,7.2,0,0,1-.07-.8l-.08-3.69c-.5-1.4-.9-2.7-1.29-4-.22-.72-.44-1.44-.68-2.17l-.09-.28a111.83,111.83,0,0,1-4.15-31v-.16a89.13,89.13,0,0,1,1.88-15.69c1.3-6.13,3.2-12.54,8.2-17.9l.14-.15a19.83,19.83,0,0,1,12.34-5.75c.42,0,.83,0,1.25,0a24,24,0,0,1,9.75,2.28,34.74,34.74,0,0,1,7.82,5,7.74,7.74,0,0,1,.81.81c.4.49.83.93,1.27,1.41s.68.71,1,1a23.42,23.42,0,0,1,3.12,4.15c3.61,5.26,3.21,12.63-1,17a9.37,9.37,0,0,1-6.77,3,12.42,12.42,0,0,1-7.16-2.73,8.47,8.47,0,0,1-2.65-3.33A22.72,22.72,0,0,0,452,402a1.73,1.73,0,0,0-.43.08,13.37,13.37,0,0,0-2.5,2.63c-1.33,2.66-2.67,11-2.67,15.15,0,6.91,1.1,12.23,2.37,18.38.28,1.34.56,2.7.83,4.12a61.31,61.31,0,0,0,3.19,10.08,69.37,69.37,0,0,0,6.07,10.14c2.78,3.64,6,5.73,8.88,5.73a6.47,6.47,0,0,0,.76,0,7.85,7.85,0,0,0,2-.43l.14-.08a20.79,20.79,0,0,0,2.86-1.78,15.23,15.23,0,0,0,4.22-5.49c2.55-5.26,4-12.5,4-20.37a99.93,99.93,0,0,0-2.83-24.45l0-.13c-1-4.22-.58-7.22.39-9.35-1.68-5.15-2.67-14.61-2.78-15.71a89.28,89.28,0,0,1-.14-12.66,60.73,60.73,0,0,1,2.32-13.26,40.06,40.06,0,0,1,6.61-13.45l.54-.77c.09-.13.19-.27.29-.39a11.82,11.82,0,0,1,8.94-4.44,18.77,18.77,0,0,1,1.36-2.06,17.46,17.46,0,0,1,7.72-6.22,14.55,14.55,0,0,1,5.09-.88,15.79,15.79,0,0,1,5.65,1,24.37,24.37,0,0,1,7,4.45l.45.43a52.24,52.24,0,0,1,7.81,10.49,96.15,96.15,0,0,1,5.06,10.8,186.4,186.4,0,0,1,7.18,21.22,12.09,12.09,0,0,0,1.6-2.89l-1.78-9.12c-1.89-7.31-5-19.09-8.31-30.48-1.18-4.12-4.7-16.62-8.81-31.17-7.15-25.38-16.06-57-17.32-61.14l-1.21-4c-1-3.32-2-6.63-3-10s-2.4-7.06-3.84-10.88c-2.69-7.15-5.48-14.54-6.22-21.51a13.81,13.81,0,0,1,13.75-15.09,14.31,14.31,0,0,1,13.95,11.74,4.54,4.54,0,0,1,.12.53c3,16.18,5.58,29.68,8.66,42.92.7,3,5.2,19.92,10,37.83,6.11,23,13,49,14.57,55.55,2.71,11.55,6.53,26.74,8.43,33.78a15.36,15.36,0,0,1,3.26,6.19c.63-2.73,1.21-5.5,1.72-8.28l.06-.3.66-2.87a14.41,14.41,0,0,1,.92-14.79,1,1,0,0,0,.08-.11,14.66,14.66,0,0,1,2.24-2.42,75.44,75.44,0,0,1,2.47-10.3A62.93,62.93,0,0,1,580,325.28c2.09-3.49,5.6-9.33,12.28-12.62l.19-.09a20.88,20.88,0,0,1,8.44-1.84,16.64,16.64,0,0,1,4.24.53,27,27,0,0,1,9.31,4.83,30.59,30.59,0,0,1,5.72,6.5l.17.25a6.13,6.13,0,0,1,.57,1c.23.46.46.88.68,1.27-.56-3.83-1.16-7.84-1.79-11.82l-2.45-15.64q-1,.19-1.68.39l-.44.12a213.07,213.07,0,0,0-21.74,6.57,7.81,7.81,0,0,1-1.17.33l-.8.15a8.27,8.27,0,0,1-.87.11l-.58,0c-5.16,0-9.65-4.06-10.67-9.64a11.13,11.13,0,0,1,2-8.7,9.93,9.93,0,0,1,7-4c5.31-.54,10.85-1.51,16.71-2.54,2.21-.38,4.42-.77,6.61-1.13.7-.12,1.56-.29,2.53-.49l-.57-3.16c-.4-2.21-.8-4.42-1.24-6.66-.58-3-1.28-6-2-9.14-1.89-8.11-3.84-16.49-3.81-24.39a13.74,13.74,0,0,1,13.33-13.33h.28a14.37,14.37,0,0,1,14.11,13.62c0,.16,0,.33,0,.49.81,12.49,1.76,25.21,2.83,37.91,6.89-1.13,14.85-2.22,15.32-2.28.68-.1,1.53-.24,2.49-.41l-.51-3.16c-.35-2.2-.7-4.41-1.09-6.66-.52-2.95-1.16-6-1.83-9.17-1.73-8.15-3.51-16.57-3.31-24.47a13.7,13.7,0,0,1,13.57-13,14.57,14.57,0,0,1,14.15,14c0,.17,0,.33,0,.49.55,12.41,1.24,25.09,2,37.78l.53-.09c2.92-.52,5.69-1,7.41-1.4l1.74-.42c1.91-.45,4.07-1,6.08-1.34,3.91-.74,7-1.43,9.56-2,4-.88,6.41-1.41,8.57-1.41a10.82,10.82,0,0,1,2.18.21c4.93,1,8.73,5.53,9.26,11a12.35,12.35,0,0,1-2.84,9.26,10.51,10.51,0,0,1-7.47,3.74l-4.78.24c-6.29.3-12.79.61-19,1.25-2.48.26-5.92.63-9.62,1.05.45,6.2.88,11.65,1.34,16.79l.23,2.63c.92,10.43,1.87,21.22,2.76,28l.21,1.61c.52,4,1,8.05,1.59,12.12,1.16-2.81,2.27-5.68,3.3-8.58a14.11,14.11,0,0,1,2.68-12.4l.09-.11a14.21,14.21,0,0,1,2.33-2.22,72.41,72.41,0,0,1,3-10,60.94,60.94,0,0,1,6.34-12.3c2.28-3.34,6.1-8.92,13-11.72l.2-.08a20.74,20.74,0,0,1,7.11-1.25,17.67,17.67,0,0,1,5.63.88,27.84,27.84,0,0,1,9,5.45,31.08,31.08,0,0,1,5.37,6.83l.17.27a8,8,0,0,1,.51,1c.24.58.51,1.09.75,1.56s.41.81.59,1.2a24.86,24.86,0,0,1,1.71,4.69,20,20,0,0,1,.59,3.76,7.28,7.28,0,0,1-.25,2.53,11.64,11.64,0,0,1-3.3,6.21,3.83,3.83,0,0,1-.29.28,10.09,10.09,0,0,1-4.81,2.61c-1.91.57-4,1.39-6,2.18l-2.19.87a46.22,46.22,0,0,0-7.21,4,55.31,55.31,0,0,0-6.79,5.13l-.26.21a34,34,0,0,0-2.56,2.27c-.12.75-.22,1.5-.29,2.2a43.77,43.77,0,0,0,.08,9,39.45,39.45,0,0,0,1.84,8.56c1.88,4.93,4.61,8.43,7.16,9.14a9.74,9.74,0,0,0,1.91.4,22.71,22.71,0,0,0,3.13-.36,11.41,11.41,0,0,0,4.88-2.54c3.53-3,6.64-8,8.76-13.9a73.43,73.43,0,0,0,4.19-19.95c0-.05,0-.1,0-.14.5-5.85,5-10.26,10.53-10.26a10.06,10.06,0,0,1,1.81.16,11.44,11.44,0,0,1,9.19,12.25,10.7,10.7,0,0,1-.69,3.47l-.07.19c-.88,2.3-1.73,4.62-2.58,6.94-1.79,4.89-3.64,9.94-5.76,14.8a79.84,79.84,0,0,1-5.33,10.92,43.27,43.27,0,0,1-8.22,10.29,28.14,28.14,0,0,1-5.55,4.21,28.64,28.64,0,0,1-6.47,2.66l-.12,0a32.67,32.67,0,0,1-6.29,1.25c-.46,0-.93.05-1.41.05a26.21,26.21,0,0,1-6.14-.77,29.19,29.19,0,0,1-13.52-7.93,45.42,45.42,0,0,1-7.64-11.2c-2.25,4.44-4.74,9.26-7.15,13.73l-.09.15c-.08.17-.16.38-.26.61-1.1,2.63-3.68,8.78-10.11,9.59a9.22,9.22,0,0,1-1.29.09c-6.19,0-11.31-5.47-11.91-12.73l-.19-2.86c-1.91,2.7-4,5.56-6.4,8.51-.45.56-11,13.72-18.55,14.88a9.87,9.87,0,0,1-1.44.11c-4.58,0-8.08-3.16-10.09-7.23a38.9,38.9,0,0,1-5.1,6.49,29.79,29.79,0,0,1-5.27,4.6,29.32,29.32,0,0,1-6.28,3.12l-.11,0a32.45,32.45,0,0,1-6.19,1.72,20.78,20.78,0,0,1-3.13.22,26.65,26.65,0,0,1-4.45-.38,28.42,28.42,0,0,1-14-7,39.77,39.77,0,0,1-4.77-5.41c-1.66,5-3.57,10.66-5.53,16.18-.07.19-.14.38-.23.57s-.13.48-.2.76c-.75,2.85-2.32,8.78-8.24,10.59a10.21,10.21,0,0,1-3,.45c-5.72,0-10.87-4.74-12-11.06l-3-13.25c-.76.39-1.52.75-2.25,1.08.16,1.38.29,2.71.39,3.8.55,7.08.84,16.27-1.78,25.25a34.19,34.19,0,0,1-6.23,12.63,22.38,22.38,0,0,1-18.1,9,23,23,0,0,1-9.26-1.91c-3.12-1.39-8-5.11-11.92-8.9a108.32,108.32,0,0,1-1.41,11.25A62,62,0,0,1,494.34,470a35.17,35.17,0,0,1-3.79,6.87,32.7,32.7,0,0,1-5.18,5.58l-.1.09a35.49,35.49,0,0,1-5.61,4.13,24.63,24.63,0,0,1-7.67,2.59,25.34,25.34,0,0,1-4.14.33,26.16,26.16,0,0,1-12.09-2.85,35.73,35.73,0,0,1-5.84-3.92c-.09,2.26-.16,4.24-.19,5.48,0,.94-.06,1.75-.08,2.4-.06,1.48-.12,3-.19,4.48-.15,3.32-.31,6.76-.3,9.89a124.28,124.28,0,0,0,.94,14.05,13.13,13.13,0,0,1-2.9,10.12,11,11,0,0,1-8,3.9h-.35a11,11,0,0,1-5.56-1.58q2.26,3.75,4.81,7.91c4.48,7.28,3.42,17-2.36,21.55a14.08,14.08,0,0,1-8.8,2.93,15.2,15.2,0,0,1-11.34-4.86,7.05,7.05,0,0,1-1.37-2.21c-1.7-1.54-4-3.55-6.85-6-6.66-5.77-16.73-14.48-30.36-27.13-6-5.59-12.77-11.49-20.65-18-5.4-4.48-11.24-9-16.89-13.34l-4.33-3.35c-6.46-4.78-13-10.17-19.3-15.39-7.17-5.93-14.56-12-21.89-17.28,5.88,10.31,11.54,19.82,18.7,31.06,12.28,19.28,30.71,53.4,44.16,78.32,7.69,14.23,14.32,26.52,17.28,31.34,3.32,5.44,6.41,10.9,9.39,16.17,4.73,8.36,9.19,16.24,14.56,24.15,4.7,6.86.24,17-3.59,20.81A9.77,9.77,0,0,1,387.39,661Zm1.25-214.6q3.28,6.73,6.66,13.36,4,7.92,8.07,16c6.38,12.7,12.94,25.74,19.76,38.2-1.47-3.41-3.05-6.88-4.75-10.45-2.2-4.61-4.58-9.35-6.88-13.93-1.09-2.15-2.16-4.29-3.21-6.39C404.66,475.8,395.49,458,392,452,390.94,450.2,389.81,448.29,388.64,446.35ZM494.45,381.9c.06,6.83.83,15.9,2.82,20.28.42.93,1,2.38,1.76,4,1.36,3.18,3.43,8,4.38,9.7,6.16,11.25,9.41,15.06,11.05,16.27,2.63,1.95,4.46,2.07,7.5,2.27l.52,0c1.1-.26,3.83-2.56,5-5.38,1.42-3.33,1.35-9.72,1.29-14.85,0-.79,0-2.46,0-2.53a25.07,25.07,0,0,0-.22-3,34.44,34.44,0,0,1-8.43-1.42,26.34,26.34,0,0,1-6-1.89c-.21-.09-.41-.2-.61-.31l-.75-.4a17.65,17.65,0,0,1-4.53-3.17c-.18-.17-.36-.34-.55-.5A49.07,49.07,0,0,1,494.45,381.9Zm101.06,1.34c2,4.67,4.94,8,7.39,8.49a11.43,11.43,0,0,0,1.77.26h.17a23.09,23.09,0,0,0,3-.59,12,12,0,0,0,4.79-2.95c3.39-3.35,6.27-8.57,8.1-14.7.67-2.23,1.36-4.16,2-6,1.43-4,2.56-7.11,2.65-11.27-.07-1.18-.62-6.84-1.14-11.83-.14-1.09-.3-2.31-.48-3.64a12.29,12.29,0,0,1-1.79,2.66l-.27.29a10.29,10.29,0,0,1-4.58,2.93c-1.87.7-3.88,1.68-5.82,2.63-.74.36-1.46.71-2.15,1a48.77,48.77,0,0,0-7,4.54,58.34,58.34,0,0,0-6.53,5.67l-.23.23a33.67,33.67,0,0,0-2.52,2.54c-.09.78-.16,1.57-.19,2.31a44.63,44.63,0,0,0,.51,9A38.72,38.72,0,0,0,595.51,383.24Zm-77.09,1.6c.33.24.65.5,1,.81a23.62,23.62,0,0,0,5,3.31,183.66,183.66,0,0,0-6.19-18,57.52,57.52,0,0,0-4.08-8,35,35,0,0,0-4-5.73c0,.07-.05.14-.07.2a1.46,1.46,0,0,1-.05.2,26.06,26.06,0,0,0,.67,14.55C512.33,377.3,515.42,382.32,518.42,384.84Zm120.78-91c.58,6.24,1.14,11.83,1.7,17l.27,2.53c1.14,10.45,2.32,21.26,3.35,28l.24,1.62c.84,5.53,1.4,12.65,2,20.18.19,2.41.38,4.85.59,7.24,6.12-9.22,12.95-20.74,16.86-28l-.46-4.9c-.75-6.86-2.22-19.31-3.87-31.45l-2.14-15.77c-.56.12-1.13.24-1.73.39l-.27,0C655.22,290.81,646.31,292.54,639.2,293.8Zm-38.09,37.56c-.32.32-.65.7-.84.91l-.57.62c.34-.22.68-.44,1-.65l1.07-.65Zm123.71-21c-.36.3-.73.63-.94.82s-.45.41-.63.56l1.09-.54,1.14-.53Zm200.64,70.77c-8.67,0-16-7.75-16.78-17.54A18,18,0,0,1,913.19,350,14.66,14.66,0,0,1,924,345.19c8.82.05,16.35,8,16.88,17.64a18.4,18.4,0,0,1-4.71,13.68,14.56,14.56,0,0,1-10.63,4.64ZM886.79,379a11.3,11.3,0,0,1-2-.18c-6.28-1.13-10.74-7.53-10.16-14.55,1.51-18.31,1.92-37.29,2.31-55.63.07-3.52.14-7,.23-10.52.46-19.67-.07-40.05-.58-59.75l-.09-3.47c-.09-3.23-.26-6.72-.43-10.1-.06-1.39-.13-2.77-.19-4.12-.13-2.66-.22-5.15-.32-7.47q-.06-1.63-.12-3.15c-7.81.35-15.54.91-22.89,1.47l-4.24.34a12.66,12.66,0,0,1,1.85,9.31,11.56,11.56,0,0,1-11.1,9.61,10.6,10.6,0,0,1-2.5-.29,5.12,5.12,0,0,1-.56-.15,12.07,12.07,0,0,1-5.2-3.34,34.64,34.64,0,0,0-4.31-3.57l-1.56-1.13a40.42,40.42,0,0,0-3.56-2.44c-1-.57-2.22-1.12-3.5-1.72-.8-.37-1.61-.75-2.4-1.14a23.43,23.43,0,0,0-5-1.76C804.87,214,801,207.88,802,202a10.81,10.81,0,0,1,9.55-9.09l.2,0a6.47,6.47,0,0,1,1.32-.19c7.66-.38,15.46-.83,23-1.26l14.8-.83c4.8-.26,9.55-.54,14.3-.83,3.08-.18,6.15-.37,9.23-.54a15,15,0,0,1,.55-3.38,13.63,13.63,0,0,1,13.23-9.93A16,16,0,0,1,890,176a14.61,14.61,0,0,1,12.24,12c19.41-.67,40.42-1.26,64-1.8h.24a13.26,13.26,0,0,1,12.86,12.32,13,13,0,0,1-3.4,9.77,11.64,11.64,0,0,1-8.56,3.79h-.16a5.86,5.86,0,0,1-1-.09l-.38-.06c-20.42-1.7-41.13-2.53-63.31-2.53h-1.36c-.59,8.94-1,17.88-1.42,26.35-.15,3.22-.31,6.46-.46,9.71-.84,17.51-1.71,35.61-1.5,53.22.08,6.94.08,14,.08,20.84,0,15,0,30.45.85,45.52,0,.22,0,.43,0,.65l0,1.41,0,.38C898,374.07,892.88,379,886.79,379Z" style="opacity:0.39;fill:url(#a16f7dbf-8ab3-4ad5-bd18-46efefd7d530)"/><path d="M432.25,543.08c2.65,4.3,2.28,10.16-.78,12.6-2.84,2.26-8.12,1.83-10.81-1.21-.13-.06.95-.09.82-.15-4.18-4.33-16.73-14.17-39.79-35.57-6.72-6.25-13.78-12.34-20.93-18.28-6.9-5.72-14.27-11.3-21.47-16.88-14.79-10.95-29.68-24.95-44.92-35.27-7.47-5-13.84-9.94-21.62-14.68.13.25,7.61,12.62,10.21,17.26,8.55,15.22,15.2,26.56,23.91,40.24,19.18,30.09,53,96,61.37,109.56s15,27.21,24.13,40.59c2.24,3.26-.55,9.91-2.72,12.06s-9.74-1.05-12-4.28c-.13-.25-13.33-30-21.21-44S316.6,529,296.83,495.62c-8.18-13.8-17.18-27.37-25.92-40.86-7.72-11.92-15.72-23.82-24.08-35.35-2-1.42-4.75-5-5.3-7.17-.64-2.53.21-7.43,3.29-9.93,2.44-2,8-3.56,11.13-2.57.56.17,29.29,24.22,43.72,36s28.73,24.3,43.1,35.88c7.19,5.6,14.48,11.67,21.56,17.22s14.46,12.19,21.86,17.67c7.21,5.33,14.55,11.82,21.87,17.5-3.4-7.81-7.87-15.78-11.19-23.18-5.95-13.24-13.67-26.41-17.17-33.76-10.91-22.85-22.89-46.21-35.18-68.08-2.72-4.85-24.76-43.3-29.69-54.83-1.4-3.29.81-8.7,3.83-11a13.09,13.09,0,0,1,2.46-1c3.91-1.18,9.14.23,11,5l.12.26c6.86,16.42,17.05,39.87,24.32,56,10.44,23.14,21,46.81,32.58,69.49,10.88,21.31,21.56,43.53,33.33,64C425.56,532.09,429,537.84,432.25,543.08Zm-67-150.58c-2.12-4.59-.82-10.22,2.9-12.45,3.93-2.36,8.72-.38,10.8,4.23,2.2,4.87.88,10.46-3,12.79C372.27,399.28,367.5,397.35,365.26,392.5Zm169.23,9.09a15.69,15.69,0,0,1-3.46.32,27.62,27.62,0,0,1-9.32-1.26,19.35,19.35,0,0,1-4.76-1.47c-.88-.51-1.9-1-2.66-1.52s-1.38-1.19-2.07-1.78a42.44,42.44,0,0,1-12.43-19.55c-.87-2.92-1.56-13-1.91-15.93-4.38-.9-6.56,2.52-8,6.86A61.7,61.7,0,0,0,487.58,381c0,3.43.18,16.85,3.44,24,1.33,2.94,4.78,11.28,6.37,14.18,3.05,5.56,8.46,15.14,13,18.49s8.13,3.39,11.77,3.64c4.34.3,9.58-4.62,11.68-9.54,2.25-5.25,1.86-13.25,1.82-19.91A87.75,87.75,0,0,0,534.49,401.59Zm-9.9-33.22a66.05,66.05,0,0,0-4.56-8.89,37.69,37.69,0,0,0-5.55-7.55c-1.94-1.81-4.38-3.59-6-3s-4.41,4.15-5.1,6.9a32.88,32.88,0,0,0,.74,18.56c2,6.1,5.82,12.48,10.16,16,.59.34,4,3.63,8.08,5.21a25.06,25.06,0,0,0,11,1.46c-.46-1.31-1.4-7-2-8.61A194.77,194.77,0,0,0,524.59,368.37Zm146-31.52c-.82-7.48-2.3-19.85-3.91-31.73-1.11-8.16-2.18-16.08-3.1-22.83-1.59.3-4.82.66-9.15,1.68,0,0-16.5,3.21-22.63,4.11.61,6.8,1.38,15.06,2.29,23.43,1.27,11.61,2.53,23.39,3.66,30.83L638,344c1.76,11.7,2.35,32.48,4.53,44.12,7.4-7.4,23.15-33.69,28.71-44.28ZM708,328.08c2.31-.89,8-4.26,10-5.38,2.62-1.48,6.17-3.78,9.31-5.28,2.6-1.25,6.27-2.79,8.56-3.93a18.9,18.9,0,0,0-5.72-8c-.85-.65-4.1-2.29-5.72-2.29-2.29,0-4.78,2.66-5.72,3.43a33.69,33.69,0,0,0-3.43,3.44,61.25,61.25,0,0,0-4.58,8C710.38,319,708.34,327.11,708,328.08ZM444.68,466.23c-1.45,4.54-1.71,19.35-1.89,24.24s-.51,9.93-.49,14.64a130.79,130.79,0,0,0,1,14.84c.42,3.47-1.6,6.25-4.32,6.35-1.91.06-4.11-1.67-4.9-4l-.37-.81c-2.81-7.26-5.84-14.19-9.11-21s-6.85-13.8-10.14-20.43c-3.43-6.89-12.8-25.12-16.51-31.48-3.86-6.62-7.89-13.3-12.11-19.24-2.52-3.55-2.44-8.88.42-11.63s7.2-2.23,9.69,1.45a6,6,0,0,1,1.22,2.71c2.41,7.16,5.33,14.5,8.36,21.49s12.1,25.53,15.37,32.18c3.39,6.91,6.74,14,10.38,20.64,1.25,2.3,2.73,4.9,4,7.22.67-4.86,1.13-9.63,1.44-14.21.35-5,.53-9.95.56-14.67,0-5.12,1.22-11.3.51-16.29l-.11-4.83c-.92-2.42-1.52-4.65-2.27-7a104.25,104.25,0,0,1-3.91-29.11,83.42,83.42,0,0,1,1.73-14.48c1-4.51,2.39-10.23,6.51-14.64a12.91,12.91,0,0,1,7.92-3.73,16.32,16.32,0,0,1,7.68,1.63,28.28,28.28,0,0,1,6.22,3.95c.87,1.05,1.7,1.85,2.42,2.65a16.28,16.28,0,0,1,2.43,3.25c1.93,2.61,1.76,6.57-.14,8.54-1.61,1.67-3.26.65-5-.6-.29-.2-2.07-4.35-4.58-6.86-2.29-2.29-5.49-2.2-8-1.14-1.64.68-4.81,3.91-5.72,5.72-2.08,4.16-3.43,13.73-3.43,18.3,0,9.23,1.74,15.7,3.36,24a66.26,66.26,0,0,0,3.63,11.42,77.48,77.48,0,0,0,6.8,11.4c4.53,6,10.36,9.16,16.07,8.4a12,12,0,0,0,4.4-1.23,27.86,27.86,0,0,0,3.9-2.45,22,22,0,0,0,6.17-7.9c3.17-6.55,4.66-14.91,4.69-23.34a107.58,107.58,0,0,0-3-26.13c-.68-3-.81-5.6,1.48-6.16,0,0-.93-2.83-1.14-3.43-1.21-3.38-2.23-11-2.6-14.64a82.2,82.2,0,0,1-.11-11.64,53.25,53.25,0,0,1,2.08-11.76,33,33,0,0,1,5.52-11.21l.64-.91c2-2.47,5.18-2.43,7.58-.49.12-.35.23-.71.34-1.07a17.14,17.14,0,0,1,2.51-5.11,11.2,11.2,0,0,1,4.64-3.94,8.88,8.88,0,0,1,5.85.11,18.16,18.16,0,0,1,5,3.24,45.46,45.46,0,0,1,6.8,9.13,91.56,91.56,0,0,1,4.69,10.06,184.68,184.68,0,0,1,7,20.83c.55,1.58,1.54,6.1,2.08,7.67a24.18,24.18,0,0,0,6.77-2.92c4.08-2.73,5-6.21,6.39-9.09l-2.23-11.45c-2-7.52-5.11-19.32-8.41-30.85-3.23-11.29-24.15-85.75-26.16-92.4-1.41-4.66-2.81-9.28-4.21-13.95-3.07-10.28-8.79-21.65-9.81-31.15a7.22,7.22,0,0,1,5.73-7.39,7.4,7.4,0,0,1,8.45,6.31l.07.22c2.66,14.49,5.44,29.12,8.72,43.25,1.63,7,21.83,81.8,24.54,93.38,2.92,12.45,7.3,29.83,9,36h0c2.24,1.18,3.61,5.69,3,8.65l5.83,21.13a286.64,286.64,0,0,0,9-34.43l1.33-5.77a7.6,7.6,0,0,1-.89-9.39,4.86,4.86,0,0,1,2.88-2.16l.2,0a70,70,0,0,1,2.71-12.61,56,56,0,0,1,5-11.28c2-3.3,4.62-7.63,9.42-10a12.88,12.88,0,0,1,8.08-.92,20.09,20.09,0,0,1,6.82,3.58,25.91,25.91,0,0,1,4.55,5.34c.54,1.11,1.11,2,1.58,2.87a18.77,18.77,0,0,1,1.43,3.38,14.3,14.3,0,0,1,.52,2.54c0,.23-.14.49-.12.72a5,5,0,0,1-1.26,2.77,3.41,3.41,0,0,1-1.67,1.17c-3.08,1.11-6.23,2.77-8.93,4.05a54,54,0,0,0-8.13,5.2,66.59,66.59,0,0,0-7.31,6.35,44.85,44.85,0,0,0-4.49,4.76c-.18,1.46-.39,3.2-.47,4.84a51.8,51.8,0,0,0,.58,10.38,45.28,45.28,0,0,0,2.71,10c2.7,6.23,7,11.48,12.36,12.57a12.78,12.78,0,0,0,4.3.31,28,28,0,0,0,4.13-.84,18.84,18.84,0,0,0,7.52-4.6c4.46-4.4,7.81-10.77,9.86-17.63,2.11-7.06,4.85-11.72,5-19.31,0-1.14-1.19-12.56-1.19-12.56-1-7.46-2.7-19.81-4.56-31.65-1.27-8.13-2.51-16-3.56-22.77-3.64.81-6.91,1.36-9.1,1.94A227.65,227.65,0,0,0,591,298.26l-.81.16c-1.87.11-3.67-1.7-4.09-4s.92-4.43,2.94-4.63c7.64-.77,15.78-2.41,23.75-3.73,2.25-.37,5.69-1.17,9.34-2l-.33-2.09c-1-4.84-1.73-9.51-2.67-14.33-2.08-10.59-5.74-22.2-5.71-32.19a6.93,6.93,0,0,1,6.61-6.49,7.57,7.57,0,0,1,7.41,7.47l0,.23q1.43,22,3.35,43.94l.24,1.63c6.09-1.37,22.34-3.59,22.34-3.59,2.26-.31,5.71-1,9.38-1.72-.09-.7-.19-1.4-.28-2.1-.87-4.86-1.53-9.54-2.38-14.39-1.86-10.62-5.28-22.31-5-32.3a6.86,6.86,0,0,1,6.75-6.29,7.62,7.62,0,0,1,7.26,7.65l0,.24q1,22,2.45,44l.21,1.63c6.11-1.2,12.31-2.14,15.73-2.94,2.31-.53,5.09-1.24,7.54-1.7,10.61-2,15.57-3.64,17.64-3.21a5.4,5.4,0,0,1,3.82,4.89c.3,3-1.62,5.37-3.82,5.49-7.84.4-16.13.68-24.15,1.51-3.7.39-10.06,1.08-16.22,1.82.47,6.81,1.07,15.08,1.81,23.46,1,11.63,2,23.43,3,30.89.09.65.13,1,.21,1.63,1.53,11.73,3.06,23.47,5,35.15A277.47,277.47,0,0,0,696.31,340l.08-.79c-1.15-1.14-1.42-4.89.69-7.45a4.72,4.72,0,0,1,3-1.94h.2a67.1,67.1,0,0,1,3.33-12.34,53.5,53.5,0,0,1,5.59-10.84c2.14-3.13,5-7.24,9.93-9.24a13.07,13.07,0,0,1,8.14-.31,20.93,20.93,0,0,1,6.66,4.08,26.2,26.2,0,0,1,4.3,5.64c.49,1.15,1,2.08,1.44,3a18,18,0,0,1,1.27,3.46,13.1,13.1,0,0,1,.4,2.57c0,.23-.17.48-.15.71a4.84,4.84,0,0,1-1.4,2.66,3.28,3.28,0,0,1-1.73,1c-3.14.88-6.39,2.3-9.15,3.37a52.37,52.37,0,0,0-8.4,4.57,63.44,63.44,0,0,0-7.64,5.76,42.86,42.86,0,0,0-4.73,4.4c-.25,1.44-.54,3.16-.7,4.78a51.39,51.39,0,0,0,.08,10.37,45.65,45.65,0,0,0,2.22,10.19c2.4,6.39,6.43,11.94,11.77,13.42a12.8,12.8,0,0,0,4.3.63,26.68,26.68,0,0,0,4.18-.52,18.42,18.42,0,0,0,7.76-4c4.68-4,8.36-10.12,10.74-16.79a80.22,80.22,0,0,0,4.58-21.82c.22-2.59,2.1-4.31,4.31-3.92a4.71,4.71,0,0,1,3.51,5.28,3.68,3.68,0,0,1-.31,1.42c-2.72,7.13-5.19,14.51-8.21,21.45a76.26,76.26,0,0,1-4.91,10.1,35.9,35.9,0,0,1-7,8.83,20.05,20.05,0,0,1-9.15,5.27,26.79,26.79,0,0,1-5.08,1.05,18.14,18.14,0,0,1-5.42-.54,22.46,22.46,0,0,1-10.2-6A39.52,39.52,0,0,1,703.65,367a51.52,51.52,0,0,1-3.68-12.4l-.15-2.82c-1.14,2.28-8.4,17.39-15.05,29.69-.8,1.29-2.06,6.41-5.28,6.81-2.83.36-5.21-2.88-5.5-6.4l-1.63-24.38a157,157,0,0,1-17.16,26.31c-3.44,4.31-11,11.89-14.23,12.38-2.83.44-5.12-3.87-5.48-7.39l-.89-18.72s-1.14,2.29-3.28,7.71a77.83,77.83,0,0,1-4.39,10.48,37.84,37.84,0,0,1-6.56,9.38,22.85,22.85,0,0,1-4.15,3.64,21.6,21.6,0,0,1-4.7,2.31,27,27,0,0,1-5,1.44,17.85,17.85,0,0,1-5.41-.14,21.66,21.66,0,0,1-10.44-5.24,38.18,38.18,0,0,1-7.38-10l-3.61-8.16c-1.18,3.94-5.73,18.29-10.46,31.64-.78,1.46-1.1,6.7-4.2,7.65-2.74.83-5.73-1.93-6.34-5.43l-5.32-23.56c-2.29,3.43-10.78,7.44-14.18,8.32.43,2.54.85,6.22,1.08,8.85.59,7.61.61,15.48-1.56,22.84a27.29,27.29,0,0,1-5,10.19,17,17,0,0,1-8.78,5.93,16.55,16.55,0,0,1-10.41-.86c-3.31-1.47-10.75-7.67-13.78-11.79L493.88,425c0,4.58-.17,7-.73,16.06a106,106,0,0,1-1.49,13.44,56.53,56.53,0,0,1-3.64,12.8,28.21,28.21,0,0,1-3.08,5.6,26.19,26.19,0,0,1-4,4.31,30,30,0,0,1-4.59,3.43,17.34,17.34,0,0,1-5.46,1.83A19.94,19.94,0,0,1,459,480.7,39.33,39.33,0,0,1,448.56,472Zm141.6-115.51c2.21-1.14,7.46-5.07,9.33-6.4,2.46-1.75,5.74-4.41,8.71-6.23,2.45-1.51,5.94-3.43,8.1-4.81a19,19,0,0,0-6.53-7.36c-.92-.56-4.32-1.85-5.93-1.68-2.28.24-4.48,3.15-5.33,4a32.8,32.8,0,0,0-3,3.77,60.47,60.47,0,0,0-3.71,8.45C587.66,341.47,586.48,349.72,586.28,350.72ZM972.45,199c.24,3.21-2.11,6.23-5.18,6.19l-.64-.11c-24-2-47.84-2.75-71.92-2.54-.83,10.94-1.38,22-1.88,32.86-1,20.94-2.21,42.28-2,63.32.26,22.15-.29,44.49.94,66.67l0,1.4c-.34,3.49-2.91,5.8-5.75,5.28s-4.82-3.76-4.53-7.23c1.81-22,2-44.54,2.55-66.55.49-21-.13-42.64-.67-63.56-.12-4.64-.41-9.71-.63-14.35-.31-6.94-.48-12.7-.77-17.41-10.15.27-20.1,1-29.93,1.72-8.76.67-17.36,1.61-26.11,2.68l1.29.76a47.89,47.89,0,0,0,6.21,3.3,37.59,37.59,0,0,0,6.39,2.18c2.53.61,4.13,3.58,3.61,6.28s-2.76,4.53-5.3,3.94a5.4,5.4,0,0,1-2.33-1.52,39.16,39.16,0,0,0-5.31-4.45,68.61,68.61,0,0,0-5.77-4c-1.93-1.08-4.13-2-6.21-3a30.06,30.06,0,0,0-6.43-2.28c-2.13-.5-3.71-3.16-3.31-5.47a3.93,3.93,0,0,1,3.78-3.42l.85-.22c12.62-.62,25.23-1.4,37.84-2.08,10.13-.55,20.09-1.22,30.07-1.74-.11-3.76-.25-6.35.23-8a6.84,6.84,0,0,1,7.58-4.93c3.79.49,6.84,4.42,6.46,8.6v.24a19.37,19.37,0,0,1-.35,3.48q35.56-1.29,71.14-2.06A6.45,6.45,0,0,1,972.45,199ZM915.53,363.1c-.46-6.08,3.37-11.08,8.53-11.05s9.64,5.08,10,11.16c.34,6.24-3.51,11.11-8.54,11.08S916,369.34,915.53,363.1Z" style="fill:url(#f0a5f3f8-dd6a-4939-afb4-4f4e88daa549)"/><path d="M866,776.86c-4,0-9.84-.76-13.42-2.2s-7.44-5.29-9-7.46c-2.12-3-3.87-8.45-4.38-11.17-.58-3.07-.87-10.68,1.06-15.17,3.43-8,15.12-19.07,21.33-22.84a45.94,45.94,0,0,1,22.63-6.51l.94,0c5.57,0,19.86,2,20,2l3,.33c2.19.23,4,.43,5.52.61A63.48,63.48,0,0,1,918,706a33.08,33.08,0,0,1-7.1.76c-1.05,0-2.1-.05-3.11-.15-2-.19-8.61-1.05-12.58-4.07a42.79,42.79,0,0,1-6-5.53c-4.27-4.79-6.9-9.39-8.05-14.08-.11-.46-.23-1-.36-1.65-5.75,4.81-10.26,8.45-12.66,9.84a59.08,59.08,0,0,1-14.38,6.27,44.84,44.84,0,0,1-8.27,1.8,43.88,43.88,0,0,1-5.53.31c-1,0-2,0-3.05-.07l-.44,0a62.69,62.69,0,0,1-7.84-.75A44.86,44.86,0,0,1,819.8,696a42.58,42.58,0,0,1-15.29-10.57,45.51,45.51,0,0,1-8.37-14.17c-.19-.51-.37-1-.53-1.56l-15.73,14.45c-.22.2-.45.38-.69.56s-.42.42-.66.68c-2.09,2.19-6,6.28-12.17,6.28h-.49a13.77,13.77,0,0,1-10.25-5.1,12.73,12.73,0,0,1-2.71-10.1l1.62-11a110.79,110.79,0,0,0-7.33,8.66,78,78,0,0,0-6.45,9.9,13,13,0,0,1-11.33,6.59,12.68,12.68,0,0,1-4.44-.8,11.77,11.77,0,0,1-8-11.16v-.14q0-.31,0-.63c0-1.16.06-2.34.07-3.53a50.57,50.57,0,0,1-3.69,5.39l-.33.4a41.71,41.71,0,0,1-6,6,32.84,32.84,0,0,1-9.22,4.92,24.4,24.4,0,0,1-8.4,1.47,24.78,24.78,0,0,1-4.63-.43,27.91,27.91,0,0,1-10.81-4.7,6.41,6.41,0,0,1-.58-.45c-2.73-2.39-5.55-6.69-7.88-11.64l-6,11q-.21.38-.45.72c-.1.16-.34.57-.64,1.09-3.9,6.67-8.22,13.31-14.28,14.77a16.39,16.39,0,0,1-3.9.48c-6.53,0-11.62-4-12.67-10.07,0-.11,0-.21-.05-.32-1.67-13.35-3.56-28.48-6.69-43.11,0-.08-.1-.59-.25-1.45-2.31-13.84-4.29-24.17-5.91-30.71-1.09-4.43-1.81-8.65-2.51-12.73-.17-1-.34-2-.51-3l-3,.65c-3,.65-6.17,1.32-7.58,1.81-12.64,4.38-24.43,9-36,14.21l-.51.2-1.26.45-.52.16A14,14,0,0,1,559,620c-5.24,0-9.68-2.87-11.31-7.33a10,10,0,0,1,.55-8.07,13.67,13.67,0,0,1,8.45-6.74c5.12-1.51,10.42-3.15,15.53-4.72,7.51-2.32,15.28-4.72,22.93-6.88l.81-.22,12.45-3.52c-1.28-4.78-2.5-9.55-3-12.28-.1-.53-.26-1.23-.43-2-2.71-12.43-3.59-20.63-.06-25.76a9.54,9.54,0,0,1,6.47-4.09,11,11,0,0,1,1.62-.12c11.84,0,14.77,17.8,15.24,21.37a135.61,135.61,0,0,0,3.33,16.64c4.29-1.06,8.41-2,11.94-2.82,2.91-.67,5.47-1.26,7.5-1.77l.68-.17c3.78-1,8.08-2,12-2.83l8.14-1.68c11.93-2.47,17.92-3.71,21.74-3.71.45,0,.88,0,1.26.05,6.58.53,11.73,5.12,12.23,10.91.58,6.73-5.07,12.54-12.86,13.24-11.88,1.07-25.66,2.39-39,4.53-4.4.71-11.8,2.08-19.9,3.76.77,6.16,1.54,11.76,2.35,17,1.75,11.28,5.36,30.86,5.57,31.89,1.2,5.36,1.94,11,2.66,16.4.1.78.2,1.56.31,2.34,4.35-6.64,8.83-13.48,12.38-20l.75-8.29c0-.18,0-.37.07-.55a58,58,0,0,1,4.26-13.93,44.17,44.17,0,0,1,9.72-14.48A49.63,49.63,0,0,1,681.3,600a38.25,38.25,0,0,1,12.25-5.11,39.1,39.1,0,0,1,8.24-.87,33.67,33.67,0,0,1,7.09.71c1.11.24,2.16.52,3.16.83a16.64,16.64,0,0,1,7-3.11,19.64,19.64,0,0,1,3.82-.38c6.78,0,12.59,3.54,14.8,9a6.77,6.77,0,0,1,.5,2.35l.08,2.35a8.25,8.25,0,0,1-.05,1.11,124.8,124.8,0,0,0-.89,17.21c0,2.57-.1,5.27-.21,7.88A83.72,83.72,0,0,0,737,642.4c.22,2.54.31,4.55.4,6.32.09,1.93.17,3.66.39,5.77l1.76-1.84c2.88-2.92,5.74-6.29,8.43-9.49,1.17-1.39,3.18-3.44,5.5-5.82s6-6.16,7.86-8.37l2-32.06c.18-5.77.44-10.24.68-14.18.24-4.11.43-7.35.45-10.71,0-2.88,0-6.74,0-10.39,0-2.45,0-4.82,0-6.74,0-6.34-.9-15-1.56-21.27-.48-4.51-.72-6.94-.72-8.47,0-6.23,4.37-14.87,12.58-14.87a12,12,0,0,1,9.11,3.74c4.41,4.72,3.92,11.82,3.53,17.52l-.07.93c-1.13,16.94-1.13,29.19-1.13,37.3,0,7.36-2.67,53.29-3.45,64.54a171.08,171.08,0,0,1-2.59,17.89l-.66,3.69,0,0c4.81-4.18,9.73-8.46,14.11-12.64l-.15-.64c-1.64-7,.29-12,5.72-14.68l.12-.06a11,11,0,0,1,3.7-1A76.53,76.53,0,0,1,811.25,616a57.75,57.75,0,0,1,13.47-10.1c4.22-2.33,11.28-6.22,21.51-6.43h.14a28.51,28.51,0,0,1,13.54,3.41,23.16,23.16,0,0,1,7.53,5.67l1,1a33.63,33.63,0,0,1,5.84,8.72,8,8,0,0,1,.56,1.4c.14.53.34,1.08.56,1.67s.36,1,.51,1.47a20.49,20.49,0,0,1,1.05,5.67,15.86,15.86,0,0,1-.5,4.45,7.25,7.25,0,0,1-1.69,3.17,12.28,12.28,0,0,1-6.62,4.35l-.33.08a16.07,16.07,0,0,1-3.76.53,10.39,10.39,0,0,1-1.68-.13c-.41,0-.8-.05-1.14-.05a11.72,11.72,0,0,0-2.53.3,28.85,28.85,0,0,1-5.73.58h-.14a88.19,88.19,0,0,0-13,1.3A91.88,91.88,0,0,0,827.51,646l-.26.07a53.67,53.67,0,0,0-5.38,1.71c-.34.61-.65,1.21-.91,1.77a28.56,28.56,0,0,0-2.24,8.1,25.56,25.56,0,0,0,.28,8.1c.84,3.32,3.13,9.11,9,11.67l.08,0a21.35,21.35,0,0,0,4.28,1.47l.18,0c1.72.31,3.66.65,5.2.77.81.06,1.62.09,2.41.09h0a29.54,29.54,0,0,0,7.55-1,44.72,44.72,0,0,0,18.18-10.12c1.32-1.21,2.74-2.44,4.2-3.7,4.31-3.74,9.18-8,11.47-12l3.65-14c.07-.24.14-.47.23-.71,2.09-5.49,4.23-10.58,5.33-13a60.08,60.08,0,0,1,4-6.73c3.18-4.7,6-7.63,10-7.67h.12a11.49,11.49,0,0,1,9,4.16,11.88,11.88,0,0,1,2.21,10c-.67,3.18-2.63,7-4.91,11.38-1.92,3.71-4.09,7.91-5,10.93-.69,2.37-1.22,4.6-1.74,6.76-.73,3-1.49,6.19-2.66,9.71a12.52,12.52,0,0,0-.12,3.69,35.23,35.23,0,0,1,.07,3.61,18.41,18.41,0,0,0,.78,6.69,17.4,17.4,0,0,0,3.23,6c1.07,1.2,2.79,1.87,5.29,2.76h0a3.42,3.42,0,0,0,.6,0,8.88,8.88,0,0,0,4.09-1.12,95.23,95.23,0,0,0,14.71-13.22c5-5.78,9.21-13.91,13.32-21.77,2-3.87,4.12-7.87,6.28-11.54A12.7,12.7,0,0,1,961,632.78a10,10,0,0,1,5.6,1.61,12.78,12.78,0,0,1,4.68,15.25,5.89,5.89,0,0,1-.24.58l-.13.29c-1.69,4-5.73,10.48-10.84,18.46-1.88,2.94-3.66,5.72-4.54,7.25-1,1.84-2.85,6.33-4.45,10.29-2.49,6.19-4.85,12-7,15.22-2.81,4.21-5.34,8.67-7.6,12.74,1.08-.29,2.15-.61,3.17-1,1.58-.54,3.4-1.27,5.16-2,1-.41,2-.81,3-1.17a47.05,47.05,0,0,0,6-3.06l1.14-.65c1.88-1.06,4.31-2.62,7-4.49a55.72,55.72,0,0,0,5.91-4.89,53.71,53.71,0,0,0,5-5.3,11.81,11.81,0,0,1,9.38-4.18,14.67,14.67,0,0,1,8.26,2.54,13.58,13.58,0,0,1,6,9.47,10.64,10.64,0,0,1-2.09,7.77l-.06.11a6.82,6.82,0,0,1-1.73,2A112.24,112.24,0,0,1,975,720.55a148.71,148.71,0,0,1-18.72,8.24,106.76,106.76,0,0,1-20.5,5.58,51.28,51.28,0,0,1-7.36.48c-1.59,0-3.08-.05-4.34-.13-3.22,4-8.85,10.92-11.74,13.82-1.81,1.8-3.56,3.87-5.26,5.87a73.4,73.4,0,0,1-7.69,8.19c-3.22,2.79-10.82,7.13-13.72,8.46-.1.05-10.59,4.79-16.45,5.6A23.42,23.42,0,0,1,866,776.86Zm-4.58-20.28a19.33,19.33,0,0,0,4.63.46,18,18,0,0,0,3.23-.23c8.16-4.08,10.52-5.54,11.2-6a6.61,6.61,0,0,1,.55-.37c4.18-2.52,9.17-7.85,12.47-11.37,1.57-1.69,2.83-3,3.87-4,.73-.68,1.93-1.94,3.28-3.4-4.41-.53-12.7-1.38-15.18-1.38a29.18,29.18,0,0,0-13.19,3.9c-5.14,3.08-8.37,5.79-10.81,9-1.58,2.11-3.59,6.54-3.4,8A10.53,10.53,0,0,0,861.44,756.58Zm-172.17-85h.14c.62,0,2.46-.45,6.16-4.65a37,37,0,0,0,5-7.84c2.51-5.27,6-15.36,8.25-22l1.1-3.22a35.21,35.21,0,0,0,1.47-13.29l-2.66-2.09c-1.26-.45-3.94-1.26-5-1.49h-.88a41.49,41.49,0,0,0-4.4.21c-.62.34-1.38.72-2.35,1.21s-2.79,1.4-3.46,1.83a32.8,32.8,0,0,0-5.78,7.31c0,.11-.11.21-.17.32A52.14,52.14,0,0,0,680.53,647c-.52,5.53,1.71,12.37,3.51,17.88C684.68,666.86,687.72,671,689.27,671.62ZM845.43,621.5A31,31,0,0,0,840,622a23.53,23.53,0,0,0-3.52,1.37l1.82-.21a92.6,92.6,0,0,0,9.44-1.43l-.56-.12A13.41,13.41,0,0,0,845.43,621.5Z" style="opacity:0.39;fill:url(#a81e724a-a021-403c-8a0c-6a4a5fa2671b)"/><path d="M717.62,616.82c-.11-.19-4.66-3.71-5.33-4.24a44.71,44.71,0,0,0-7.7-2.38c-1-.12-7.65-.09-8.83.66-1.4.88-6.42,3.11-7.57,4.18a39.25,39.25,0,0,0-7.45,9.47,59.09,59.09,0,0,0-7,21.87c-.64,6.85,1.74,14.28,3.82,20.65,1,3.18,5.72,10.29,10.21,11.28,5.67,1.25,10.7-4.19,13-6.79a43.49,43.49,0,0,0,6-9.32c3.18-6.67,7.32-19.2,9.69-26.07C719.23,628,718.39,618.15,717.62,616.82ZM818.24,632.7c3.78-.15,15-2.05,18.44-2.47a108.38,108.38,0,0,0,14.1-2.21c2.34-.5,8.13-1,10.54-1.68.39-2.79-2-6.34-3-7.37s-6.88-3.65-10-4.16a34.53,34.53,0,0,0-9.87.48,44.39,44.39,0,0,0-12.12,6C825.49,622.1,818.65,629.71,818.24,632.7Zm73.66,8.08c2.07-5.45,4.14-10.37,5.15-12.59.68-1.48,5.85-10.36,7.83-10.38,3.26,0,5.29,2.49,4.57,5.92-1,4.69-7.69,14.69-9.76,21.81-1.71,5.89-2.44,10.55-4.32,16.22-1,3-.26,6.34-.4,9.13a25.52,25.52,0,0,0,1.14,9.24,24.24,24.24,0,0,0,4.62,8.43c2.23,2.47,5.11,3.56,8.11,4.63,3.26,1.15,8.29-.13,10.89-1.9a101.89,101.89,0,0,0,16-14.41c8-9.38,13.85-23.32,20.3-34.29,1.77-3,5.29-3.45,6.71-2.49a5.94,5.94,0,0,1,2,7.22l-.2.42c-2.3,5.68-12.19,20.08-15.05,25.08s-8,20.37-11.18,25.1c-6.55,9.8-11.44,20.59-15,25.23,4.49.15,5.42-.16,9.59-.87a58.81,58.81,0,0,0,9-2.28c2.67-.91,5.69-2.21,8.36-3.24a62.14,62.14,0,0,0,8-4.13c2.44-1.37,5.21-3.2,7.56-4.83a66.88,66.88,0,0,0,12.38-11.56c1.56-2,5.58-2.17,8.37-.26,3.05,2.11,4.09,5.55,2.15,7.7l-.35.61a106.17,106.17,0,0,1-16.55,10.18A140.27,140.27,0,0,1,954,722.33a98.82,98.82,0,0,1-19.16,5.25,61.08,61.08,0,0,1-13.8,0s-9.72,12.32-13.51,16.1c-4.58,4.58-8.26,10-12.59,13.73a75.53,75.53,0,0,1-12.09,7.42c-2.89,1.33-10.72,4.51-14.52,5a34.44,34.44,0,0,1-13.11-1.56,18.59,18.59,0,0,1-5.93-5.06,28.71,28.71,0,0,1-3.25-8.48c-.52-2.76-.48-8.62.63-11.2,2.66-6.22,13-16.29,18.59-19.67a39,39,0,0,1,19.31-5.52c3.57-.19,16.28,1.42,19.75,1.9,1.63.23,11.62,1.16,13.51,1.67,2.29-4.57,4-9.67,7.45-14.33,4.33-5.79,9.32-16.45,12.93-22.59-3.14,2.76-12.27,10-16.39,12.35-3.33,1.92-8.57,2.84-13.28,2.38-2.44-.24-7-1.09-9.08-2.7a35.51,35.51,0,0,1-5.08-4.64c-3.1-3.47-5.55-7.22-6.51-11.14-.79-3.22-2.08-13.1-2.08-13.1-3.44,2.73-17.28,14.8-21,17a51.82,51.82,0,0,1-12.92,5.63,38.26,38.26,0,0,1-7.16,1.57,43.8,43.8,0,0,1-7.36.19,60.81,60.81,0,0,1-7.43-.66,38.78,38.78,0,0,1-7.43-2.22,35.63,35.63,0,0,1-12.73-8.75,38.74,38.74,0,0,1-7.08-12,37.65,37.65,0,0,1-2.08-13l-25.26,23.21c-1.73,1.08-4.45,5.88-9.12,5.71-4.12-.15-7.07-3.73-6.44-7.25l4.78-32.28c-3.59,3-11.08,11.49-14.23,14.78a117.39,117.39,0,0,0-8.5,9.95,86.62,86.62,0,0,0-7,10.76,6.12,6.12,0,0,1-7.34,2.65c-2.24-.83-3.73-2.63-3.57-4.77l0-.47c.23-5.9-.1-12-.43-18.13s-.94-12-1.57-18.06c-2,7.65-3.89,15.07-7.39,22.41a51.23,51.23,0,0,1-6.49,11.15,35.84,35.84,0,0,1-5.12,5.21,26.81,26.81,0,0,1-7.38,3.89,18.11,18.11,0,0,1-9.38.73,21.22,21.22,0,0,1-8.12-3.57c-3.93-3.44-9.55-14.79-10.7-24L653.48,683c-1.06,1.49-6.38,12.09-11,13.2-4,1-7.59-.6-8.2-4.09-1.83-14.69-3.69-29.22-6.78-43.69-.1-.46-3.34-20.72-6.21-32.38-2-8-2.75-15.77-4.39-22.4-5.9,1.7-14.62,3.11-18.17,4.34-12.49,4.33-24.49,9-36.6,14.43l-1.29.45c-3,.81-5.95-.35-6.75-2.57s1.22-4.9,4.5-5.87c12.62-3.73,25.57-8,38.37-11.57,3.63-1,13.83-3.89,19.79-5.61-.17-.68-3.75-13.51-4.69-18.34s-5.69-22.89.27-23.79c6.69-1,9,15.25,9,15.35a128.45,128.45,0,0,0,5.47,24c10-2.67,20-4.77,25.77-6.22,3.88-1,8.39-2.11,12.43-2.94,17.53-3.58,25.8-5.5,29.22-5.22,3.05.25,5.72,2.08,5.94,4.66.26,3-3,5.48-6.64,5.81-13.15,1.19-26.38,2.49-39.42,4.59-6,1-16.4,2.95-26.38,5.14.8,6.81,1.85,15.11,3.14,23.42,1.78,11.52,5.49,31.63,5.63,32.27,2.6,11.56,2.93,24.27,6.12,35.69,7-11.68,16.27-24.32,22.67-36.33l.87-9.69A50.7,50.7,0,0,1,670,623.45a37.46,37.46,0,0,1,8.21-12.35,42.84,42.84,0,0,1,6.82-5.37,30.59,30.59,0,0,1,22.43-4.34,25.94,25.94,0,0,1,6.67,2.36c.83-2.18,3-4,6.24-4.62,4.85-1,9.51,1,10.92,4.48,0,.7.06,1.64.08,2.35a132.87,132.87,0,0,0-1,18.17c.07,6-.76,13-.25,18.87.53,6.1.28,8.87,1.14,14.87.34,2.32,1.2,9.89,1.56,12.24.28-.25,8.41-9.43,11.58-12.64s6.08-6.65,8.8-9.9,12.6-12.52,14.82-16.19l2.14-34.15c.37-11.76,1.1-18.27,1.15-25.17,0-4.82,0-12.36,0-17.16,0-10.5-2.29-26.31-2.29-29.75,0-3.2,2.29-8,5.72-8,7.1,0,6.16,8.36,5.72,14.88-1.14,17.16-1.14,29.75-1.14,37.75,0,6.87-2.59,51.76-3.44,64.08-.81,11.82-5.26,27.35-5.27,39.2,9.81-9.37,23.07-19.7,32.44-29.54l-2.64-1.34c-.5-2.6-2-6.17,1.86-8.13,1.63-.78,4.51-.19,4.51-.19s4.57-8,9.42-13.09A51,51,0,0,1,828,611.93c4.23-2.33,10-5.41,18.33-5.58a21.65,21.65,0,0,1,10.52,2.71c3.54,1.74,4.42,3.1,6.65,5.35a27.87,27.87,0,0,1,4.66,7.12c.35,1.29.83,2.39,1.16,3.42a13.84,13.84,0,0,1,.72,3.81,9.1,9.1,0,0,1-.31,2.59c-.06.23-.42.38-.48.61a5.36,5.36,0,0,1-3,1.93,7,7,0,0,1-3,.27c-5-.46-5.79.78-10.37.77a92.66,92.66,0,0,0-14.14,1.39,100.08,100.08,0,0,0-13.25,3.08,65.57,65.57,0,0,0-8.39,2.85,48.56,48.56,0,0,0-2.41,4.43,34.71,34.71,0,0,0-2.8,10.08,31.81,31.81,0,0,0,.39,10.49c1.7,6.88,5.89,13.37,13,16.45a27.35,27.35,0,0,0,5.89,2c1.92.34,4.12.74,6.07.88a36.67,36.67,0,0,0,12.24-1.09,51.21,51.21,0,0,0,21-11.69c5.94-5.42,14-11.34,17.47-18.19Zm22.68,85.91c-.51-.21-10.26-1.34-10.76-1.54-3.06-.45-15.35-1.79-18.55-1.73a36.27,36.27,0,0,0-16.5,4.87c-4.91,3-9.34,6.24-12.78,10.82-1.52,2-5.72,9.15-4.57,13.73s3.43,6.86,5.72,9.15,12.58,2.29,14.87,1.14c3.22-1.61,10.33-5.18,12.59-6.86,7-4.22,14.56-13.62,17.41-16.14C904.7,737.64,912.08,729.24,914.58,726.69Z" style="fill:url(#a71b3a7e-a15b-46cd-9c2c-32fe079fad24)"/><path d="M528.26,822.32a50.74,50.74,0,0,1-10-1c-29.14-5.83-33.69-32.77-37.35-54.42-.6-3.49-1.16-6.8-1.8-10a20.35,20.35,0,0,1,16.62-23.86,13.84,13.84,0,0,1,2.94-.32,10.19,10.19,0,0,1,8,3.61c4.21,5,2.77,13,1.38,20.66-.26,1.45-.52,2.88-.71,4.19l-.08.66c-1.53,12.7-2.73,22.73,3.11,31.12,4.09,5.88,9.83,8.74,17.54,8.74,18,0,43.93-16.91,55.55-36.18,10.08-16.72,31.42-59,11.89-90.26-7.42-11.89-17.79-17.2-33.61-17.2-11.21,0-23.72,2.57-37,5.29s-27.14,5.58-40.7,6l-1.38,0c-13.81,0-21.43-6-25.39-11-5-6.36-7.55-15.18-7.55-26.21,0-25.36,14.15-63.33,36.06-96.73,11.42-17.41,41.28-57.91,71.8-57.91,8.32,0,20.2,3.21,29.58,18.52a7.83,7.83,0,0,1,.47.91c10.54,24.93.91,50-7.6,72.17-2,5.31-4,10.32-5.61,15.27-3.35,12.74-12.7,14.12-16.59,14.12a23.56,23.56,0,0,1-8.65-1.78c-6.05-2.4-12.43-9-16.65-13.38-.83-.86-1.55-1.6-2.11-2.15a6.89,6.89,0,0,1-.92-1.09c-5.7-8.43-4.83-14.11-3.09-17.39,2-3.81,6-6,10.93-6,5.42,0,11.29,2.58,16.27,6.83,8.12-21.4,11.3-47.92,6-56.54-1-1.54-1.74-1.66-2.59-1.66-2,0-8,1.27-20.35,13.08-17.58,16.79-59.41,77.29-59.72,110,0,5.79,1.3,10.09,4,12.79,2.22,2.2,6,3.27,11.65,3.27,9.2,0,21.13-2.88,33.77-5.94,14-3.4,28.56-6.91,41.37-6.91a56.29,56.29,0,0,1,9.2.7c13.52,1.55,25.51,9,34.68,21.67,15.64,21.54,20.68,55.09,16.52,75.07-4.22,20.25-18,43.4-36.78,61.92-20.23,19.92-43.23,31.34-63.12,31.34Z" style="fill:#35ebff;opacity:0.39"/><path d="M581.33,499.64c11.79,27.88-4.77,56.6-13.48,82.82-2.64,10.42-10.27,10.22-16.12,7.9s-13.37-11-16.52-14.08c-11.47-16.95,10.57-16.9,20.29.15,17.65-35.19,25.35-109.73-23.56-62.94-21.8,20.82-80.75,107.81-55.8,132.58,16.84,16.71,69.2-12.16,99.88-6.94,38,4.17,51.15,61.08,45.43,88.53-8.68,41.64-60.89,95.15-101.83,87-28.6-5.72-29.14-36.2-33.77-59A13.48,13.48,0,0,1,497,739.85c8.85-2,4.79,11.6,3.48,20.49-1.64,13.7-3.27,25.88,4.21,36.62,19.47,28,67.52.5,84.6-27.83C607.51,739,619,700.22,601.17,671.7c-24.34-39-73.54-10.4-117.3-9.19C399.36,664.83,533.94,422.24,581.33,499.64Z" style="fill:#35ebff"/><path d="M432.79,544.1c2.64,4.3,2.27,10.15-.79,12.59-2.84,2.27-8.12,1.83-10.81-1.21-.13-.06.95-.09.82-.14-4.17-4.34-16.73-14.17-39.79-35.57-6.72-6.25-13.78-12.35-20.93-18.28-6.89-5.72-14.27-11.3-21.47-16.88-14.79-10.95-29.68-25-44.91-35.28-7.48-5-13.85-9.93-21.63-14.67.13.25,7.61,12.62,10.22,17.25,8.54,15.22,15.19,26.57,23.9,40.25,19.18,30.09,53,95.94,61.37,109.55s15,27.22,24.14,40.6c2.23,3.26-.56,9.91-2.73,12.05s-9.74-1-12-4.27c-.13-.25-13.33-30-21.21-44S317.14,530,297.36,496.63c-8.18-13.8-17.18-27.36-25.92-40.86-7.72-11.91-15.72-23.81-24.07-35.34-2-1.42-4.76-5-5.3-7.17-.65-2.53.21-7.43,3.28-9.93,2.44-2,8-3.56,11.14-2.57.55.17,29.28,24.21,43.71,36s28.73,24.3,43.1,35.87c7.19,5.61,14.48,11.68,21.56,17.22s14.46,12.2,21.86,17.68c7.21,5.32,14.55,11.82,21.87,17.5-3.39-7.81-7.86-15.78-11.19-23.18-5.95-13.24-13.66-26.42-17.17-33.76-10.91-22.85-22.89-46.21-35.18-68.08-2.72-4.85-24.75-43.3-29.68-54.83-1.41-3.29.8-8.7,3.83-11a12.15,12.15,0,0,1,2.45-1c3.91-1.18,9.14.22,11,5l.12.26c6.86,16.42,17.06,39.87,24.32,56,10.44,23.14,21,46.82,32.59,69.49,10.87,21.32,21.55,43.54,33.33,64C426.1,533.11,429.56,538.86,432.79,544.1Zm-67-150.59c-2.12-4.58-.82-10.21,2.9-12.44,3.94-2.36,8.72-.38,10.8,4.23,2.2,4.87.88,10.46-3,12.79C372.8,400.3,368,398.36,365.79,393.51ZM535,402.6a15.05,15.05,0,0,1-3.46.33,27.62,27.62,0,0,1-9.32-1.26,19.2,19.2,0,0,1-4.75-1.48c-.89-.5-1.91-1-2.67-1.51s-1.38-1.19-2.07-1.79a42.46,42.46,0,0,1-12.43-19.54c-.87-2.93-1.56-13-1.91-15.93-4.38-.9-6.56,2.52-8,6.86A61.57,61.57,0,0,0,488.12,382c0,3.43.17,16.85,3.43,24,1.33,2.94,4.79,11.28,6.37,14.18,3.05,5.56,8.47,15.14,13,18.49s8.13,3.39,11.78,3.64c4.34.3,9.57-4.62,11.68-9.54,2.24-5.25,1.85-13.25,1.81-19.91A86.06,86.06,0,0,0,535,402.6Zm-9.9-33.21a66.05,66.05,0,0,0-4.56-8.89A37.41,37.41,0,0,0,515,353c-1.93-1.81-4.38-3.6-6-3s-4.41,4.15-5.1,6.9a33,33,0,0,0,.74,18.56c2,6.09,5.82,12.48,10.16,16,.59.34,4,3.63,8.09,5.21a25.33,25.33,0,0,0,11,1.46c-.46-1.31-1.4-7-2-8.61A192.4,192.4,0,0,0,525.12,369.39Zm146-31.52c-.82-7.48-2.3-19.85-3.91-31.74-1.11-8.15-2.18-16.07-3.1-22.83-1.58.31-4.81.67-9.14,1.69,0,0-16.51,3.21-22.64,4.11.61,6.8,1.38,15.06,2.29,23.43,1.27,11.61,2.53,23.39,3.66,30.83l.25,1.63c1.77,11.7,2.36,32.48,4.53,44.12,7.4-7.4,23.15-33.7,28.71-44.28Zm37.47-8.77c2.32-.9,7.95-4.26,9.95-5.39,2.63-1.47,6.18-3.78,9.32-5.28,2.59-1.24,6.26-2.78,8.55-3.92a18.75,18.75,0,0,0-5.72-8c-.85-.65-4.1-2.29-5.72-2.29-2.29,0-4.78,2.66-5.72,3.43a32.51,32.51,0,0,0-3.43,3.43,61.39,61.39,0,0,0-4.58,8C710.91,320.05,708.88,328.13,708.57,329.1ZM445.21,467.25c-1.45,4.54-1.71,19.35-1.89,24.23s-.5,9.94-.49,14.65a128.7,128.7,0,0,0,1,14.84c.41,3.47-1.6,6.25-4.33,6.34-1.91.07-4.11-1.67-4.9-3.95l-.37-.81c-2.81-7.27-5.84-14.19-9.11-21s-6.84-13.81-10.14-20.43c-3.42-6.89-12.8-25.12-16.51-31.48-3.86-6.62-7.88-13.3-12.1-19.25-2.53-3.55-2.45-8.87.41-11.62s7.21-2.23,9.69,1.45a6,6,0,0,1,1.22,2.71C400.1,430,403,437.37,406,444.37s12.1,25.53,15.37,32.17c3.39,6.92,6.75,14,10.38,20.64,1.26,2.31,2.74,4.91,4,7.23.67-4.86,1.13-9.63,1.45-14.21.34-5,.52-9.95.55-14.68,0-5.12,1.22-11.29.52-16.28l-.12-4.83c-.92-2.42-1.51-4.65-2.27-7a103.88,103.88,0,0,1-3.9-29.11,82.43,82.43,0,0,1,1.72-14.48c1-4.51,2.39-10.23,6.51-14.64a12.81,12.81,0,0,1,7.92-3.73,16.38,16.38,0,0,1,7.68,1.62,28.32,28.32,0,0,1,6.22,4c.87,1.05,1.71,1.85,2.42,2.65A16.28,16.28,0,0,1,467,397c1.94,2.6,1.76,6.56-.14,8.53-1.61,1.67-3.26.66-5-.59-.28-.2-2.07-4.36-4.58-6.86-2.28-2.29-5.49-2.2-8-1.15-1.64.69-4.81,3.91-5.72,5.72-2.08,4.17-3.43,13.73-3.43,18.31,0,9.22,1.74,15.7,3.36,24a67.14,67.14,0,0,0,3.63,11.42,77.38,77.38,0,0,0,6.8,11.39c4.54,6,10.37,9.17,16.08,8.41a12,12,0,0,0,4.39-1.23,27.86,27.86,0,0,0,3.9-2.45,22,22,0,0,0,6.17-7.9c3.18-6.56,4.66-14.91,4.7-23.34a108,108,0,0,0-3-26.13c-.68-3-.8-5.61,1.48-6.16,0,0-.93-2.83-1.14-3.44-1.21-3.38-2.22-11-2.59-14.63a80.74,80.74,0,0,1-.12-11.64,54.34,54.34,0,0,1,2.08-11.76,33,33,0,0,1,5.52-11.21l.64-.91c2-2.47,5.18-2.43,7.59-.49l.33-1.07a17.39,17.39,0,0,1,2.51-5.11A11.22,11.22,0,0,1,507,344.7a8.78,8.78,0,0,1,5.84.11,18.13,18.13,0,0,1,5,3.24,45.51,45.51,0,0,1,6.79,9.13,91.42,91.42,0,0,1,4.7,10.05,184.79,184.79,0,0,1,7,20.84c.55,1.58,1.54,6.09,2.09,7.67a24.12,24.12,0,0,0,6.76-2.92c4.08-2.73,5-6.21,6.39-9.09l-2.23-11.46c-1.94-7.51-5.11-19.32-8.41-30.84-3.23-11.29-24.15-85.76-26.16-92.4-1.4-4.66-2.81-9.28-4.2-13.95-3.08-10.29-8.8-21.65-9.81-31.15a7.21,7.21,0,0,1,5.72-7.39,7.41,7.41,0,0,1,8.46,6.31l.06.22c2.66,14.49,5.44,29.12,8.72,43.25,1.63,7,21.83,81.8,24.54,93.38,2.92,12.45,7.3,29.83,9,36h0c2.23,1.18,3.6,5.69,2.95,8.65l5.83,21.12a285.66,285.66,0,0,0,9-34.43l1.33-5.76a7.6,7.6,0,0,1-.88-9.39,4.81,4.81,0,0,1,2.88-2.16l.19,0a70,70,0,0,1,2.71-12.6,55.75,55.75,0,0,1,5-11.28c2-3.3,4.62-7.63,9.42-10a13,13,0,0,1,8.09-.91,20,20,0,0,1,6.81,3.58,25.81,25.81,0,0,1,4.55,5.33c.55,1.12,1.11,2,1.58,2.88a18.26,18.26,0,0,1,1.43,3.37,13.57,13.57,0,0,1,.52,2.55c0,.23-.14.49-.11.72a5.1,5.1,0,0,1-1.27,2.77,3.34,3.34,0,0,1-1.67,1.16c-3.08,1.12-6.22,2.78-8.93,4.05a54.57,54.57,0,0,0-8.13,5.21,66.59,66.59,0,0,0-7.31,6.35,43.9,43.9,0,0,0-4.49,4.76c-.18,1.45-.38,3.2-.47,4.83a51.91,51.91,0,0,0,.59,10.39,44.73,44.73,0,0,0,2.7,10c2.7,6.23,7,11.48,12.36,12.57a12.8,12.8,0,0,0,4.3.31,27.87,27.87,0,0,0,4.14-.84,18.83,18.83,0,0,0,7.51-4.61c4.46-4.39,7.81-10.76,9.86-17.62,2.11-7.06,4.86-11.72,5-19.31,0-1.14-1.18-12.56-1.18-12.56-1-7.47-2.71-19.81-4.56-31.65-1.28-8.13-2.52-16-3.57-22.77-3.64.81-6.91,1.36-9.1,1.94a225.08,225.08,0,0,0-22.87,6.91l-.81.15c-1.87.12-3.67-1.69-4.09-4s.92-4.43,2.94-4.63c7.64-.77,15.78-2.41,23.75-3.73,2.25-.38,5.69-1.17,9.34-2l-.33-2.09c-1-4.85-1.72-9.51-2.67-14.34-2.08-10.58-5.74-22.19-5.71-32.18A6.92,6.92,0,0,1,620.6,230a7.58,7.58,0,0,1,7.42,7.46l0,.24c1,14.67,2.07,29.29,3.35,43.94.07.46.18,1.16.25,1.63,6.08-1.37,22.33-3.59,22.33-3.59,2.26-.31,5.72-1,9.39-1.72-.1-.7-.19-1.4-.29-2.1-.87-4.87-1.53-9.54-2.38-14.39-1.85-10.63-5.28-22.31-5-32.3a6.85,6.85,0,0,1,6.75-6.29,7.63,7.63,0,0,1,7.27,7.65l0,.23q1,22,2.44,44l.21,1.63c6.12-1.2,12.32-2.14,15.73-2.94,2.31-.54,5.09-1.24,7.54-1.7,10.61-2,15.57-3.64,17.65-3.21a5.41,5.41,0,0,1,3.82,4.89c.29,3-1.63,5.37-3.83,5.48-7.84.41-16.13.69-24.15,1.52-3.7.39-10.06,1.08-16.21,1.81.46,6.81,1.06,15.08,1.8,23.46,1,11.64,2,23.43,3,30.89.09.66.13,1,.22,1.64,1.52,11.73,3,23.47,5,35.15A279.26,279.26,0,0,0,696.85,341l.07-.79c-1.14-1.15-1.42-4.89.7-7.45a4.67,4.67,0,0,1,3-1.94l.19,0a68,68,0,0,1,3.33-12.33,53.84,53.84,0,0,1,5.59-10.85c2.14-3.13,5-7.24,9.93-9.23a13,13,0,0,1,8.14-.31,20.87,20.87,0,0,1,6.66,4.07,26.5,26.5,0,0,1,4.3,5.65c.5,1.15,1,2.08,1.44,3a18.45,18.45,0,0,1,1.28,3.46,13.75,13.75,0,0,1,.39,2.57c0,.23-.16.48-.15.71a4.84,4.84,0,0,1-1.4,2.66,3.28,3.28,0,0,1-1.73,1c-3.14.88-6.39,2.3-9.15,3.36a52.37,52.37,0,0,0-8.4,4.57A63.69,63.69,0,0,0,713.4,335a43,43,0,0,0-4.74,4.4c-.25,1.43-.54,3.16-.7,4.78A51.39,51.39,0,0,0,708,354.5a45.44,45.44,0,0,0,2.22,10.18c2.4,6.4,6.44,11.95,11.77,13.43a12.8,12.8,0,0,0,4.3.63,27,27,0,0,0,4.19-.53,18.25,18.25,0,0,0,7.75-4c4.69-4,8.36-10.13,10.74-16.79a80.22,80.22,0,0,0,4.58-21.82c.22-2.6,2.1-4.32,4.31-3.92a4.71,4.71,0,0,1,3.51,5.28,3.85,3.85,0,0,1-.3,1.42c-2.73,7.13-5.19,14.51-8.22,21.45a75.63,75.63,0,0,1-4.91,10.1,36.29,36.29,0,0,1-7,8.83,21.82,21.82,0,0,1-4.34,3.31,21.3,21.3,0,0,1-4.82,2,27.59,27.59,0,0,1-5.08,1.05,18.37,18.37,0,0,1-5.41-.54,22.49,22.49,0,0,1-10.21-6,39.49,39.49,0,0,1-6.9-10.47,51.09,51.09,0,0,1-3.69-12.4l-.15-2.83c-1.14,2.29-8.4,17.4-15.05,29.7-.8,1.28-2.06,6.4-5.27,6.81-2.84.36-5.22-2.88-5.51-6.4l-1.63-24.38a157,157,0,0,1-17.16,26.31c-3.44,4.3-11,11.89-14.23,12.38-2.83.44-5.12-3.88-5.48-7.39l-.88-18.72s-1.15,2.29-3.29,7.71a77.83,77.83,0,0,1-4.39,10.48,37.08,37.08,0,0,1-6.56,9.37,22.9,22.9,0,0,1-4.15,3.65,21.75,21.75,0,0,1-4.69,2.31,27.09,27.09,0,0,1-5,1.44,17.86,17.86,0,0,1-5.41-.14,21.59,21.59,0,0,1-10.44-5.25,38.12,38.12,0,0,1-7.38-10l-3.61-8.16c-1.18,3.94-5.72,18.29-10.46,31.63-.78,1.46-1.1,6.71-4.2,7.66-2.74.83-5.72-1.93-6.33-5.43l-5.33-23.56c-2.29,3.43-10.78,7.44-14.18,8.32.43,2.54.85,6.22,1.08,8.85.59,7.61.61,15.48-1.56,22.84a27.29,27.29,0,0,1-5,10.19,16.92,16.92,0,0,1-8.78,5.92,16.47,16.47,0,0,1-10.41-.85c-3.31-1.47-10.75-7.67-13.78-11.79l-6.86-10.3c0,4.58-.16,7-.73,16.06a106.24,106.24,0,0,1-1.49,13.44,56.82,56.82,0,0,1-3.64,12.8,27.86,27.86,0,0,1-3.08,5.59,25.41,25.41,0,0,1-4,4.31,29.31,29.31,0,0,1-4.58,3.44,17.77,17.77,0,0,1-5.46,1.83,20,20,0,0,1-11.9-1.81A39.34,39.34,0,0,1,449.09,473Zm141.6-115.52c2.21-1.13,7.46-5.07,9.34-6.4,2.45-1.74,5.74-4.4,8.7-6.22,2.45-1.51,5.94-3.43,8.1-4.81a18.9,18.9,0,0,0-6.53-7.36c-.91-.56-4.32-1.85-5.93-1.68-2.28.24-4.47,3.15-5.33,4a32.14,32.14,0,0,0-3,3.77,60.86,60.86,0,0,0-3.71,8.44C588.19,342.49,587,350.74,586.81,351.73ZM973,200.05c.23,3.2-2.11,6.22-5.18,6.18l-.65-.1c-24-2-47.84-2.75-71.92-2.54-.82,10.94-1.38,22-1.88,32.86-1,20.94-2.21,42.28-2,63.32.26,22.15-.29,44.49,1,66.67l-.06,1.4c-.33,3.48-2.91,5.79-5.75,5.28s-4.82-3.76-4.53-7.23c1.81-22,2-44.54,2.55-66.55.49-21-.13-42.64-.67-63.56-.12-4.64-.41-9.71-.62-14.35-.32-6.94-.48-12.7-.78-17.41-10.14.27-20.1,1-29.93,1.72-8.76.67-17.36,1.61-26.11,2.68l1.29.75a46.76,46.76,0,0,0,6.21,3.31,38.49,38.49,0,0,0,6.39,2.18c2.53.61,4.13,3.58,3.61,6.27s-2.76,4.54-5.3,3.95a5.4,5.4,0,0,1-2.33-1.52,39.16,39.16,0,0,0-5.31-4.45c-1.9-1.35-3.9-2.93-5.77-4s-4.12-2-6.21-3a30.62,30.62,0,0,0-6.43-2.29c-2.12-.49-3.71-3.16-3.31-5.46a3.94,3.94,0,0,1,3.78-3.43l.86-.21c12.61-.62,25.22-1.41,37.83-2.09,10.13-.54,20.09-1.21,30.08-1.73-.11-3.76-.26-6.35.22-7.95a6.84,6.84,0,0,1,7.58-4.93c3.79.49,6.84,4.42,6.47,8.6v.24a19.46,19.46,0,0,1-.35,3.48q35.57-1.3,71.15-2.06A6.46,6.46,0,0,1,973,200.05ZM916.06,364.11c-.46-6.08,3.37-11.07,8.53-11s9.65,5.08,10,11.16-3.5,11.11-8.54,11.08S916.53,370.35,916.06,364.11Z" style="stroke:#000;stroke-miterlimit:10;stroke-width:3px;fill:url(#bfe550e3-3123-4964-97fe-be2fb7ff83d2)"/><path d="M718.15,617.84c-.11-.19-4.66-3.71-5.33-4.24a45.58,45.58,0,0,0-7.7-2.39c-.94-.11-7.65-.08-8.83.66-1.4.89-6.42,3.12-7.57,4.19a39.4,39.4,0,0,0-7.45,9.46,59.2,59.2,0,0,0-7,21.87c-.64,6.86,1.75,14.29,3.82,20.65,1,3.18,5.72,10.3,10.21,11.29,5.68,1.25,10.7-4.19,13-6.79a43.82,43.82,0,0,0,6-9.33c3.18-6.66,7.32-19.19,9.69-26.06C719.76,629,718.92,619.16,718.15,617.84Zm100.62,15.88c3.78-.15,15-2.05,18.44-2.48a106.38,106.38,0,0,0,14.1-2.2c2.34-.5,8.13-1,10.54-1.68.4-2.79-2-6.34-3-7.37s-6.87-3.65-10-4.16a34.19,34.19,0,0,0-9.87.48,44.39,44.39,0,0,0-12.12,6C826,623.11,819.19,630.72,818.77,633.72Zm73.66,8.08c2.07-5.45,4.14-10.37,5.15-12.59.68-1.48,5.86-10.36,7.83-10.38,3.26,0,5.3,2.49,4.57,5.91-1,4.7-7.69,14.7-9.76,21.82-1.71,5.89-2.44,10.55-4.32,16.22-1,3.05-.26,6.34-.4,9.13a25.31,25.31,0,0,0,1.15,9.24,24.11,24.11,0,0,0,4.62,8.42c2.22,2.48,5.11,3.57,8.1,4.63,3.26,1.16,8.29-.12,10.89-1.89a101.94,101.94,0,0,0,16-14.41c8-9.38,13.86-23.33,20.3-34.29,1.77-3,5.29-3.45,6.71-2.5a6,6,0,0,1,2,7.22l-.2.43c-2.3,5.68-12.19,20.07-15,25.08s-8,20.37-11.19,25.09c-6.55,9.81-11.44,20.6-15,25.24,4.49.15,5.42-.16,9.59-.87a58.81,58.81,0,0,0,9-2.28c2.68-.91,5.69-2.21,8.37-3.24a62,62,0,0,0,8-4.13c2.44-1.38,5.21-3.21,7.56-4.84a61.08,61.08,0,0,0,6.7-5.51,63.4,63.4,0,0,0,5.68-6c1.56-2,5.58-2.18,8.37-.26,3,2.1,4.1,5.55,2.15,7.7l-.35.61a106.17,106.17,0,0,1-16.55,10.18,141.07,141.07,0,0,1-17.86,7.86,100.27,100.27,0,0,1-19.16,5.25,60.78,60.78,0,0,1-13.8,0S911.8,740.91,908,744.7c-4.57,4.58-8.26,10-12.58,13.73a76.8,76.8,0,0,1-12.1,7.42c-2.89,1.33-10.72,4.51-14.52,5a34.44,34.44,0,0,1-13.11-1.57,18.54,18.54,0,0,1-5.93-5,29,29,0,0,1-3.24-8.49c-.52-2.75-.48-8.61.62-11.19,2.66-6.22,13-16.29,18.59-19.68a39.13,39.13,0,0,1,19.32-5.51c3.56-.19,16.27,1.41,19.74,1.9,1.63.23,11.63,1.16,13.51,1.67,2.29-4.57,4-9.68,7.45-14.33,4.33-5.8,9.32-16.45,12.93-22.59-3.14,2.75-12.27,10-16.39,12.35-3.33,1.91-8.57,2.83-13.27,2.37-2.44-.24-7-1.08-9.09-2.69a35,35,0,0,1-5.08-4.65c-3.09-3.46-5.55-7.22-6.51-11.13-.79-3.22-2.08-13.1-2.08-13.1-3.44,2.72-17.28,14.79-21,17a51.91,51.91,0,0,1-12.91,5.63,38.36,38.36,0,0,1-7.17,1.57,43.77,43.77,0,0,1-7.36.19,58.93,58.93,0,0,1-7.43-.67,38.75,38.75,0,0,1-7.43-2.21,35.76,35.76,0,0,1-12.73-8.75,38.64,38.64,0,0,1-7.07-12,37.41,37.41,0,0,1-2.09-13l-25.26,23.21c-1.73,1.08-4.45,5.88-9.12,5.71-4.12-.15-7.07-3.74-6.43-7.26L765,646.3c-3.6,3-11.09,11.5-14.24,14.79a115.52,115.52,0,0,0-8.49,9.95,85.5,85.5,0,0,0-7,10.76,6.14,6.14,0,0,1-7.35,2.65c-2.24-.84-3.73-2.64-3.57-4.77l0-.47c.23-5.91-.09-12-.42-18.13s-.94-12-1.58-18.06c-2,7.65-3.89,15.07-7.38,22.41a51.68,51.68,0,0,1-6.5,11.15,35.83,35.83,0,0,1-5.12,5.21,26.81,26.81,0,0,1-7.38,3.89,18,18,0,0,1-9.38.72,20.88,20.88,0,0,1-8.11-3.57c-3.93-3.44-9.56-14.79-10.71-23.94L654,684.06c-1.06,1.48-6.38,12.09-11,13.19-4,1-7.59-.6-8.19-4.09-1.84-14.69-3.69-29.21-6.79-43.69-.1-.46-3.34-20.71-6.21-32.37-2-8-2.75-15.77-4.39-22.4-5.9,1.7-14.62,3.11-18.16,4.34-12.5,4.33-24.5,9-36.61,14.43l-1.28.45c-3,.81-5.95-.36-6.76-2.57s1.22-4.9,4.5-5.87c12.62-3.73,25.57-8,38.37-11.57,3.63-1,13.83-3.9,19.79-5.61-.17-.68-3.74-13.52-4.69-18.34s-5.69-22.89.27-23.79c6.69-1,9,15.25,9,15.34a128.89,128.89,0,0,0,5.47,24c10-2.66,20-4.77,25.78-6.21,3.87-1,8.38-2.11,12.43-2.94,17.52-3.59,25.79-5.5,29.21-5.22,3,.24,5.72,2.08,5.94,4.66.27,3-3,5.48-6.63,5.81-13.16,1.19-26.39,2.49-39.43,4.59-6,1-16.4,3-26.38,5.14.8,6.81,1.85,15.1,3.14,23.41,1.78,11.53,5.49,31.63,5.63,32.28,2.6,11.56,2.93,24.27,6.12,35.68,7-11.67,16.27-24.32,22.67-36.32l.87-9.69a50.7,50.7,0,0,1,3.75-12.27,37.36,37.36,0,0,1,8.21-12.35,42.73,42.73,0,0,1,6.82-5.37A30.59,30.59,0,0,1,708,602.41a25.94,25.94,0,0,1,6.67,2.36c.84-2.18,3-4,6.24-4.62,4.85-1,9.51,1,10.92,4.48,0,.7.06,1.64.08,2.35a131.21,131.21,0,0,0-.94,18.17c.06,6-.77,13-.26,18.87.53,6.1.28,8.87,1.15,14.87.33,2.32,1.2,9.89,1.56,12.23.27-.24,8.41-9.42,11.57-12.63s6.08-6.65,8.8-9.9,12.61-12.53,14.83-16.19l2.14-34.15c.37-11.76,1.1-18.27,1.14-25.17,0-4.82,0-12.36,0-17.16,0-10.5-2.29-26.32-2.29-29.75,0-3.2,2.29-8,5.72-8,7.1,0,6.16,8.36,5.72,14.88-1.14,17.16-1.14,29.74-1.14,37.75,0,6.87-2.59,51.76-3.43,64.07-.81,11.82-5.27,27.36-5.28,39.21,9.82-9.37,23.07-19.71,32.45-29.54L801,643.19c-.5-2.61-2-6.17,1.87-8.13,1.62-.78,4.5-.2,4.5-.2s4.58-8,9.42-13.08A50.72,50.72,0,0,1,828.57,613c4.23-2.34,10-5.41,18.33-5.58a21.65,21.65,0,0,1,10.52,2.71c3.54,1.74,4.43,3.1,6.65,5.35a27.87,27.87,0,0,1,4.66,7.12c.35,1.29.83,2.39,1.16,3.42a13.77,13.77,0,0,1,.72,3.81,9.1,9.1,0,0,1-.31,2.59c0,.22-.42.38-.47.61a5.3,5.3,0,0,1-3.06,1.92,6.65,6.65,0,0,1-3,.27c-5-.45-5.79.79-10.37.78a92.66,92.66,0,0,0-14.14,1.39,100.45,100.45,0,0,0-13.25,3.08,64.9,64.9,0,0,0-8.38,2.85,49.75,49.75,0,0,0-2.42,4.42,35,35,0,0,0-2.8,10.09,31.82,31.82,0,0,0,.39,10.49c1.7,6.87,5.89,13.36,13,16.45a26.71,26.71,0,0,0,5.88,2,59.18,59.18,0,0,0,6.07.89,36.65,36.65,0,0,0,12.24-1.09,51.15,51.15,0,0,0,21-11.69c5.94-5.43,14-11.34,17.47-18.19Zm22.68,85.9c-.51-.2-10.25-1.33-10.76-1.53-3.06-.45-15.35-1.79-18.55-1.73a36.15,36.15,0,0,0-16.5,4.87c-4.91,3-9.34,6.24-12.77,10.81-1.53,2-5.72,9.16-4.58,13.73s3.43,6.87,5.72,9.16,12.59,2.28,14.87,1.14c3.22-1.61,10.33-5.18,12.59-6.86,7-4.22,14.57-13.62,17.42-16.14C905.23,738.66,912.62,730.25,915.11,727.7Z" style="stroke:#000;stroke-miterlimit:10;stroke-width:3px;fill:url(#ad5db589-4ea0-4786-ad91-1d15fbec5ec5)"/><path d="M581.86,500.65c11.79,27.88-4.77,56.61-13.48,82.82-2.63,10.43-10.27,10.23-16.11,7.91s-13.38-11-16.53-14.08c-11.47-16.95,10.57-16.9,20.3.15,17.64-35.19,25.34-109.73-23.57-62.94-21.8,20.82-80.75,107.81-55.79,132.58,16.83,16.71,69.19-12.16,99.87-7,38,4.18,51.15,61.08,45.43,88.54-8.68,41.64-60.88,95.15-101.83,87-28.6-5.72-29.13-36.2-33.77-59a13.48,13.48,0,0,1,11.2-15.75c8.84-2,4.78,11.59,3.47,20.49-1.64,13.7-3.27,25.88,4.21,36.61,19.47,28,67.52.5,84.6-27.82,18.19-30.15,29.64-68.91,11.84-97.44-24.34-39-73.54-10.39-117.3-9.19C399.89,665.85,534.47,423.26,581.86,500.65Z" style="fill:#35ebff;stroke:#000;stroke-miterlimit:10;stroke-width:3px"/></svg>